<svg xmlns="http://www.w3.org/2000/svg" xmlns:xlink="http://www.w3.org/1999/xlink" xmlns:lucid="lucid" width="1178" height="498.06"><g transform="translate(-400 -260)" lucid:page-tab-id="0_0"><path d="M763 305c0-13.8 11.2-25 25-25h447c13.8 0 25 11.2 25 25v408.06c0 13.8-11.2 25-25 25H788c-13.8 0-25-11.2-25-25z" stroke="#333" stroke-width="3" fill="#e5e5e5" fill-opacity=".1"/><path d="M780 425c0-13.8 11.2-25 25-25h410c13.8 0 25 11.2 25 25v268.06c0 13.8-11.2 25-25 25H805c-13.8 0-25-11.2-25-25z" stroke="#333" stroke-width="2" fill="#e5e5e5" fill-opacity=".1"/><use xlink:href="#a" transform="matrix(1,0,0,1,786,406) translate(0 30.37777777777778)"/><use xlink:href="#b" transform="matrix(1,0,0,1,786,406) translate(12.345679012345679 30.37777777777778)"/><use xlink:href="#c" transform="matrix(1,0,0,1,786,406) translate(54.19753086419753 30.37777777777778)"/><use xlink:href="#d" transform="matrix(1,0,0,1,786,406) translate(110.92592592592592 30.37777777777778)"/><path d="M800 565c0-13.8 11.2-25 25-25h370c13.8 0 25 11.2 25 25v110c0 13.8-11.2 25-25 25H825c-13.8 0-25-11.2-25-25z" stroke="#000" fill="#e5e5e5" fill-opacity=".2"/><use xlink:href="#e" transform="matrix(1,0,0,1,800,540) translate(0 30.37777777777778)"/><use xlink:href="#f" transform="matrix(1,0,0,1,800,540) translate(12.345679012345679 30.37777777777778)"/><use xlink:href="#c" transform="matrix(1,0,0,1,800,540) translate(54.19753086419753 30.37777777777778)"/><use xlink:href="#g" transform="matrix(1,0,0,1,800,540) translate(110.92592592592592 30.37777777777778)"/><use xlink:href="#h" transform="matrix(1,0,0,1,800,540) translate(0 57.044444444444444)"/><use xlink:href="#i" transform="matrix(1,0,0,1,800,540) translate(12.345679012345679 57.044444444444444)"/><use xlink:href="#j" transform="matrix(1,0,0,1,800,540) translate(103.5185185185185 57.044444444444444)"/><use xlink:href="#k" transform="matrix(1,0,0,1,800,540) translate(184.75308641975306 57.044444444444444)"/><path d="M440 320h198v125.05c-33.07-20.88-53.66-20.88-66.13-20.88-19.8 0-46.14 20.88-65.94 20.88-12.27 0-33.06 0-65.93-20.88z" stroke="#666" stroke-width="2" fill="#fff"/><path d="M451 331.03h198V456.1c-33.07-20.9-53.66-20.9-66.13-20.9-19.8 0-46.14 20.9-65.94 20.9-12.27 0-33.06 0-65.93-20.9z" stroke="#666" stroke-width="2" fill="#fff"/><path d="M462 342.07h198v125.05c-33.07-20.88-53.66-20.88-66.13-20.88-19.8 0-46.14 20.88-65.94 20.88-12.27 0-33.06 0-65.93-20.88z" stroke="#666" stroke-width="2" fill="#fff"/><use xlink:href="#l" transform="matrix(1,0,0,1,467,347.0683440313518) translate(41.68518518518519 29.144444444444446)"/><use xlink:href="#m" transform="matrix(1,0,0,1,467,347.0683440313518) translate(101.9320987654321 29.144444444444446)"/><use xlink:href="#n" transform="matrix(1,0,0,1,467,347.0683440313518) translate(61.47222222222223 54.03333333333333)"/><use xlink:href="#o" transform="matrix(1,0,0,1,467,347.0683440313518) translate(15.805555555555557 75.63333333333333)"/><path d="M550 463.1v23.1" stroke="#666" stroke-width="2" fill="none"/><path d="M551 463.14h-2v-.6l2-.85z" fill="#666"/><path d="M550 501.46l-4.64-14.26h9.28z" stroke="#666" stroke-width="2" fill="#666"/><path d="M420 530.7c0-13.8 11.2-25 25-25h210c13.8 0 25 11.2 25 25V655c0 13.8-11.2 25-25 25H445c-13.8 0-25-11.2-25-25z" stroke="#666" stroke-width="2" fill="#fff"/><use xlink:href="#p" transform="matrix(1,0,0,1,423.15,508.84999999999997) translate(11.166666666666657 27.427777777777788)"/><use xlink:href="#q" transform="matrix(1,0,0,1,423.15,508.84999999999997) translate(121.90740740740739 27.427777777777788)"/><use xlink:href="#r" transform="matrix(1,0,0,1,423.15,508.84999999999997) translate(12.5 49.650000000000006)"/><use xlink:href="#s" transform="matrix(1,0,0,1,423.15,508.84999999999997) translate(32 49.650000000000006)"/><use xlink:href="#r" transform="matrix(1,0,0,1,423.15,508.84999999999997) translate(12.5 71.25000000000001)"/><use xlink:href="#t" transform="matrix(1,0,0,1,423.15,508.84999999999997) translate(32 71.25000000000001)"/><use xlink:href="#r" transform="matrix(1,0,0,1,423.15,508.84999999999997) translate(12.5 92.85000000000001)"/><use xlink:href="#u" transform="matrix(1,0,0,1,423.15,508.84999999999997) translate(32 92.85000000000001)"/><use xlink:href="#r" transform="matrix(1,0,0,1,423.15,508.84999999999997) translate(12.5 114.45)"/><use xlink:href="#v" transform="matrix(1,0,0,1,423.15,508.84999999999997) translate(32 114.45)"/><use xlink:href="#w" transform="matrix(1,0,0,1,423.15,508.84999999999997) translate(111.94444444444446 114.45)"/><use xlink:href="#r" transform="matrix(1,0,0,1,423.15,508.84999999999997) translate(12.5 136.05)"/><use xlink:href="#x" transform="matrix(1,0,0,1,423.15,508.84999999999997) translate(32 136.05)"/><use xlink:href="#y" transform="matrix(1,0,0,1,423.15,508.84999999999997) translate(79.61111111111111 136.05)"/><use xlink:href="#r" transform="matrix(1,0,0,1,423.15,508.84999999999997) translate(12.5 157.64999999999998)"/><use xlink:href="#z" transform="matrix(1,0,0,1,423.15,508.84999999999997) translate(32 157.64999999999998)"/><path d="M1338 320h198v156.8c-33.07-26.2-53.66-26.2-66.13-26.2-19.8 0-46.14 26.2-65.94 26.2-12.27 0-33.06 0-65.93-26.2z" stroke="#666" stroke-width="2" fill="#fff"/><path d="M1349 333.83h198v156.8c-33.07-26.18-53.66-26.18-66.13-26.18-19.8 0-46.14 26.18-65.94 26.18-12.27 0-33.06 0-65.93-26.18z" stroke="#666" stroke-width="2" fill="#fff"/><path d="M1360 347.67h198v156.8c-33.07-26.2-53.66-26.2-66.13-26.2-19.8 0-46.14 26.2-65.94 26.2-12.27 0-33.06 0-65.93-26.2z" stroke="#666" stroke-width="2" fill="#fff"/><use xlink:href="#A" transform="matrix(1,0,0,1,1360,347.6696932809874) translate(37.9567901234568 25.377777777777776)"/><use xlink:href="#m" transform="matrix(1,0,0,1,1360,347.6696932809874) translate(116.6604938271605 25.377777777777776)"/><use xlink:href="#n" transform="matrix(1,0,0,1,1360,347.6696932809874) translate(66.97222222222223 53.9)"/><use xlink:href="#B" transform="matrix(1,0,0,1,1360,347.6696932809874) translate(21.305555555555557 75.5)"/><use xlink:href="#C" transform="matrix(1,0,0,1,1360,347.6696932809874) translate(11.11111111111111 100.10000000000001)"/><use xlink:href="#D" transform="matrix(1,0,0,1,1360,347.6696932809874) translate(34 100.10000000000001)"/><use xlink:href="#C" transform="matrix(1,0,0,1,1360,347.6696932809874) translate(11.11111111111111 121.7)"/><use xlink:href="#E" transform="matrix(1,0,0,1,1360,347.6696932809874) translate(34 121.7)"/><path d="M1338 580h220v100h-220z" stroke="#666" stroke-width="2" fill="#fff"/><path d="M1360 580v100m176-100v100" stroke="#666" stroke-width="2" fill="none"/><g><use xlink:href="#F" transform="matrix(1,0,0,1,1370.5,585) translate(2.2592592592592666 35.62777777777778)"/><use xlink:href="#G" transform="matrix(1,0,0,1,1370.5,585) translate(82.38271604938272 35.62777777777778)"/><use xlink:href="#H" transform="matrix(1,0,0,1,1370.5,585) translate(51.361111111111114 64.15)"/></g><path d="M820 645c0-13.8 11.2-25 25-25h50c13.8 0 25 11.2 25 25v10c0 13.8-11.2 25-25 25h-50c-13.8 0-25-11.2-25-25z" stroke="#000" stroke-width="4" fill="#fff"/><g><use xlink:href="#I" transform="matrix(1,0,0,1,820,620) translate(11.45061728395062 37.44444444444444)"/></g><path d="M1262.5 509.03h36.75v-96.8h19.25" stroke="#666" stroke-width="2" fill="none"/><path d="M1262.53 510.03h-1.03v-2h1.03z" fill="#666"/><path d="M1333.76 412.23l-14.26 4.64v-9.27z" stroke="#666" stroke-width="2" fill="#666"/><path d="M920.54 629.02h40v47.34h-40z" stroke="#000" stroke-opacity="0" stroke-width="2" fill="#fff" fill-opacity="0"/><g><use xlink:href="#J" transform="matrix(1,0,0,1,925.5378367009977,634.022516838322) translate(5.154320987654321 23.444444444444443)"/></g><path d="M1058.74 629.02h40v47.34h-40z" stroke="#000" stroke-opacity="0" stroke-width="2" fill="#fff" fill-opacity="0"/><g><use xlink:href="#J" transform="matrix(1,0,0,1,1063.739127576298,634.022516838322) translate(5.154320987654321 23.444444444444443)"/></g><path d="M1262.5 509.03h36.75V630h19.25" stroke="#666" stroke-width="2" fill="none"/><path d="M1262.53 510.03h-1.03v-2h1.03z" fill="#666"/><path d="M1333.76 630l-14.26 4.64v-9.28z" stroke="#666" stroke-width="2" fill="#666"/><path d="M958.74 645c0-13.8 11.2-25 25-25h50c13.8 0 25 11.2 25 25v10c0 13.8-11.2 25-25 25h-50c-13.8 0-25-11.2-25-25z" stroke="#000" stroke-width="3" fill="#fff"/><g><use xlink:href="#K" transform="matrix(1,0,0,1,958.739127576298,620) translate(24.783950617283953 37.44444444444444)"/></g><path d="M1097.48 645c0-13.8 11.2-25 25-25h50c13.8 0 25 11.2 25 25v10c0 13.8-11.2 25-25 25h-50c-13.8 0-25-11.2-25-25z" stroke="#666" stroke-width="2" fill="#fff"/><g><use xlink:href="#L" transform="matrix(1,0,0,1,1097.478255152596,620) translate(20.4320987654321 37.44444444444444)"/></g><path d="M800 440h271.67v93.48H800z" fill="#fff" fill-opacity="0"/><g><use xlink:href="#M" transform="matrix(1,0,0,1,805,445) translate(0 20.77777777777778)"/><use xlink:href="#N" transform="matrix(1,0,0,1,805,445) translate(88.82716049382715 20.77777777777778)"/><use xlink:href="#O" transform="matrix(1,0,0,1,805,445) translate(188.64197530864197 20.77777777777778)"/><use xlink:href="#P" transform="matrix(1,0,0,1,805,445) translate(22.77777777777778 50.59444444444445)"/><use xlink:href="#Q" transform="matrix(1,0,0,1,805,445) translate(53.333333333333336 50.59444444444445)"/><use xlink:href="#R" transform="matrix(1,0,0,1,805,445) translate(128.58024691358023 50.59444444444445)"/><use xlink:href="#P" transform="matrix(1,0,0,1,805,445) translate(22.77777777777778 74.59444444444445)"/><use xlink:href="#S" transform="matrix(1,0,0,1,805,445) translate(53.333333333333336 74.59444444444445)"/><use xlink:href="#T" transform="matrix(1,0,0,1,805,445) translate(156.9135802469136 74.59444444444445)"/></g><path d="M682 592.85h39.25v-83.82H743" stroke="#666" stroke-width="2" fill="none"/><path d="M682.03 593.85H681v-2h1.03z" fill="#666"/><path d="M758.27 509.03L744 513.67v-9.27z" stroke="#666" stroke-width="2" fill="#666"/><g><path d="M1023.22 340v33.96h14.47L1008.73 400l-28.95-26.04h14.46V340z" stroke="#666" stroke-width="2" fill="#fff"/></g><path d="M780 320c0-11.05 8.95-20 20-20h420c11.05 0 20 8.95 20 20v13.67c0 11.04-8.95 20-20 20H800c-11.05 0-20-8.96-20-20z" stroke="#000" stroke-width="2" fill="#fff"/><g><use xlink:href="#U" transform="matrix(1,0,0,1,780,300) translate(37.77777777777777 32.94444444444444)"/><use xlink:href="#V" transform="matrix(1,0,0,1,780,300) translate(131.41975308641975 32.94444444444444)"/><use xlink:href="#W" transform="matrix(1,0,0,1,780,300) translate(176.9753086419753 32.94444444444444)"/><use xlink:href="#X" transform="matrix(1,0,0,1,780,300) translate(266.9753086419753 32.94444444444444)"/><use xlink:href="#Y" transform="matrix(1,0,0,1,780,300) translate(316.1728395061728 32.94444444444444)"/></g><defs><path d="M98-208l-15 77h118l-8 40H76L58 0H6l48-248h174l-8 40H98" id="Z"/><path d="M124-194c51 0 84 22 84 74C207-44 167 4 94 4 43 4 11-23 11-74c0-74 41-120 113-120zM99-30c46 0 58-42 58-86 0-27-11-44-37-44-44 0-55 40-57 84-1 27 10 45 36 46" id="aa"/><path d="M84-151c13-25 34-51 72-40l-8 41C67-170 71-64 56 0H6l36-190h47" id="ab"/><g id="b"><use transform="matrix(0.06172839506172839,0,0,0.06172839506172839,0,0)" xlink:href="#Z"/><use transform="matrix(0.06172839506172839,0,0,0.06172839506172839,13.518518518518517,0)" xlink:href="#aa"/><use transform="matrix(0.06172839506172839,0,0,0.06172839506172839,27.037037037037035,0)" xlink:href="#ab"/></g><path d="M114-194c63-2 87 48 72 110H63c-3 28 1 55 31 54 21-1 32-13 37-29l44 13C160-14 137 4 91 4 41 4 11-22 11-73c0-71 33-119 103-121zm30 77c14-47-50-61-67-22-3 6-6 13-8 22h75" id="ac"/><path d="M166-52c-4 17 5 29 24 23l-3 27c-30 11-74 1-67-34C105-15 91 4 56 4 23 4 3-15 2-49c0-64 63-67 128-67 10-22 3-53-29-45-13 3-22 10-25 24l-46-5c5-64 156-77 153 0-1 33-11 60-17 90zM97-88c-44-9-64 57-19 57 31 0 42-28 47-57H97" id="ad"/><path d="M67-101c-8 29-7 73 27 71 23-2 32-16 39-37l48 9C170-19 141 4 91 4 36 4 7-28 12-86c6-75 61-124 140-103 26 7 40 29 43 59l-50 4c-1-20-9-34-29-34-35 0-41 29-49 59" id="ae"/><path d="M150-105c8-23 8-54-22-51-68 7-54 98-72 156H6l50-261h50L85-158c15-20 33-36 66-36 95 0 34 128 28 194h-49" id="af"/><g id="c"><use transform="matrix(0.06172839506172839,0,0,0.06172839506172839,0,0)" xlink:href="#ac"/><use transform="matrix(0.06172839506172839,0,0,0.06172839506172839,12.345679012345679,0)" xlink:href="#ad"/><use transform="matrix(0.06172839506172839,0,0,0.06172839506172839,24.691358024691358,0)" xlink:href="#ae"/><use transform="matrix(0.06172839506172839,0,0,0.06172839506172839,37.03703703703704,0)" xlink:href="#af"/></g><path d="M132-28C118-9 101 4 69 4 30 4 10-23 10-62c0-70 24-129 92-132 31-1 47 14 56 35l19-102h49L179 0h-49zM62-69c0 22 7 39 29 39 45-2 54-45 57-90 2-27-10-40-33-40-44 0-53 48-53 91" id="ag"/><path d="M41-132l10-50h51l-10 50H41zM16 0l9-49h51L66 0H16" id="ah"/><g id="d"><use transform="matrix(0.06172839506172839,0,0,0.06172839506172839,0,0)" xlink:href="#ab"/><use transform="matrix(0.06172839506172839,0,0,0.06172839506172839,8.641975308641975,0)" xlink:href="#ac"/><use transform="matrix(0.06172839506172839,0,0,0.06172839506172839,20.98765432098765,0)" xlink:href="#ad"/><use transform="matrix(0.06172839506172839,0,0,0.06172839506172839,33.33333333333333,0)" xlink:href="#ag"/><use transform="matrix(0.06172839506172839,0,0,0.06172839506172839,46.85185185185185,0)" xlink:href="#ah"/></g><g id="f"><use transform="matrix(0.06172839506172839,0,0,0.06172839506172839,0,0)" xlink:href="#Z"/><use transform="matrix(0.06172839506172839,0,0,0.06172839506172839,13.518518518518517,0)" xlink:href="#aa"/><use transform="matrix(0.06172839506172839,0,0,0.06172839506172839,27.037037037037035,0)" xlink:href="#ab"/></g><path d="M87-160c15-17 32-34 63-34 99 1 59 172-1 192-36 12-78 0-87-29L54 0H6l52-261h49zm71 38c0-24-5-37-29-37-46 0-55 46-57 89-1 25 12 40 35 40 44 0 51-50 51-92" id="ai"/><g id="g"><use transform="matrix(0.06172839506172839,0,0,0.06172839506172839,0,0)" xlink:href="#ai"/><use transform="matrix(0.06172839506172839,0,0,0.06172839506172839,13.518518518518517,0)" xlink:href="#ad"/><use transform="matrix(0.06172839506172839,0,0,0.06172839506172839,25.864197530864196,0)" xlink:href="#ab"/><use transform="matrix(0.06172839506172839,0,0,0.06172839506172839,34.50617283950617,0)" xlink:href="#ae"/><use transform="matrix(0.06172839506172839,0,0,0.06172839506172839,46.85185185185185,0)" xlink:href="#aa"/><use transform="matrix(0.06172839506172839,0,0,0.06172839506172839,60.37037037037037,0)" xlink:href="#ag"/><use transform="matrix(0.06172839506172839,0,0,0.06172839506172839,73.88888888888889,0)" xlink:href="#ac"/><use transform="matrix(0.06172839506172839,0,0,0.06172839506172839,86.23456790123457,0)" xlink:href="#ah"/></g><path d="M17-49c1-102 45-165 103-212h30C92-210 49-145 49-46 49 4 63 43 85 75H54C30 43 18 2 17-49" id="aj"/><path d="M55-144c13 50 104 24 104 88C159 21 15 23 1-39l26-10c6 40 102 42 102-4-13-50-104-23-104-87 0-71 143-71 148-8l-29 4c-5-35-85-37-89 0" id="ak"/><path d="M165-48c-4 18 1 34 23 27l-3 20c-29 8-62 0-52-35h-2C116-14 99 4 63 4 30 4 8-16 8-49c0-68 71-67 138-67 10-26 0-56-31-54-26 1-42 9-47 31l-32-5c8-67 160-71 144 15-5 28-9 54-15 81zM42-50c3 52 80 24 89-6 7-12 7-24 11-38-47 1-103-4-100 44" id="al"/><path d="M248-111c6-24 9-61-24-58-72 9-57 108-77 169h-31l26-142c3-37-50-30-64-10C52-115 50-51 37 0H6l36-190h30c-1 10-6 24-4 32 13-43 101-52 105 5 13-22 29-41 61-41 90 0 28 129 23 194h-31" id="am"/><path d="M67-162c32-53 139-36 121 50C175-51 163 2 97 4 68 4 52-11 42-31 38 6 28 39 22 75H-9l50-265h29c-1 10 0 20-3 28zm89 36c0-26-10-43-35-43-54 0-67 50-69 103-1 29 14 45 42 46 53 0 62-58 62-106" id="an"/><path d="M6 0l50-261h32L37 0H6" id="ao"/><path d="M111-194c62-3 86 47 72 106H45c-7 38 6 69 45 68 27-1 43-14 53-32l24 11C152-15 129 4 87 4 38 3 12-23 12-71c0-70 32-119 99-123zm44 81c14-66-71-72-95-28-4 8-8 17-11 28h106" id="ap"/><path d="M58-38C53-5 46 26 28 46H7C19 32 27 18 32 0H17l7-38h34" id="aq"/><g id="i"><use transform="matrix(0.06172839506172839,0,0,0.06172839506172839,0,0)" xlink:href="#aj"/><use transform="matrix(0.06172839506172839,0,0,0.06172839506172839,7.345679012345679,0)" xlink:href="#ak"/><use transform="matrix(0.06172839506172839,0,0,0.06172839506172839,18.45679012345679,0)" xlink:href="#al"/><use transform="matrix(0.06172839506172839,0,0,0.06172839506172839,30.80246913580247,0)" xlink:href="#am"/><use transform="matrix(0.06172839506172839,0,0,0.06172839506172839,49.25925925925925,0)" xlink:href="#an"/><use transform="matrix(0.06172839506172839,0,0,0.06172839506172839,61.60493827160493,0)" xlink:href="#ao"/><use transform="matrix(0.06172839506172839,0,0,0.06172839506172839,66.48148148148147,0)" xlink:href="#ap"/><use transform="matrix(0.06172839506172839,0,0,0.06172839506172839,78.82716049382715,0)" xlink:href="#aq"/></g><path d="M44-68c0 29 11 47 38 47 30 0 42-19 51-41l28 9C148-21 126 4 82 4 31 4 10-29 12-85c3-77 74-140 146-93 12 8 15 23 18 40l-31 5c-1-22-13-36-36-36-52 0-65 49-65 101" id="ar"/><path d="M67 3c-93-2-31-127-26-193h32L48-50c-3 39 53 32 70 12 30-34 30-101 43-152h32L157 0h-30c1-10 6-24 4-33-14 20-29 37-64 36" id="as"/><path d="M66-151c12-25 30-51 66-40l-6 26C45-176 58-65 38 0H6l36-190h30" id="at"/><g id="j"><use transform="matrix(0.06172839506172839,0,0,0.06172839506172839,0,0)" xlink:href="#ar"/><use transform="matrix(0.06172839506172839,0,0,0.06172839506172839,11.11111111111111,0)" xlink:href="#ap"/><use transform="matrix(0.06172839506172839,0,0,0.06172839506172839,23.45679012345679,0)" xlink:href="#ao"/><use transform="matrix(0.06172839506172839,0,0,0.06172839506172839,28.333333333333336,0)" xlink:href="#ao"/><use transform="matrix(0.06172839506172839,0,0,0.06172839506172839,33.20987654320988,0)" xlink:href="#as"/><use transform="matrix(0.06172839506172839,0,0,0.06172839506172839,45.55555555555556,0)" xlink:href="#ao"/><use transform="matrix(0.06172839506172839,0,0,0.06172839506172839,50.4320987654321,0)" xlink:href="#al"/><use transform="matrix(0.06172839506172839,0,0,0.06172839506172839,62.77777777777778,0)" xlink:href="#at"/><use transform="matrix(0.06172839506172839,0,0,0.06172839506172839,68.88888888888889,0)" xlink:href="#aq"/></g><path d="M30-147c31-64 166-65 159 27C183-49 158 1 86 4 9 8 1-88 30-147zM88-20c53 0 68-48 68-100 0-31-11-51-44-50-52 1-68 46-68 97 0 32 13 53 44 53" id="au"/><path d="M98-137C97-35 54 29-4 75h-31C23 23 67-41 67-140c0-50-15-89-37-121h31c24 32 36 73 37 124" id="av"/><g id="k"><use transform="matrix(0.06172839506172839,0,0,0.06172839506172839,0,0)" xlink:href="#am"/><use transform="matrix(0.06172839506172839,0,0,0.06172839506172839,18.456790123456788,0)" xlink:href="#au"/><use transform="matrix(0.06172839506172839,0,0,0.06172839506172839,30.80246913580247,0)" xlink:href="#ao"/><use transform="matrix(0.06172839506172839,0,0,0.06172839506172839,35.67901234567901,0)" xlink:href="#ap"/><use transform="matrix(0.06172839506172839,0,0,0.06172839506172839,48.02469135802469,0)" xlink:href="#ar"/><use transform="matrix(0.06172839506172839,0,0,0.06172839506172839,59.1358024691358,0)" xlink:href="#as"/><use transform="matrix(0.06172839506172839,0,0,0.06172839506172839,71.48148148148148,0)" xlink:href="#ao"/><use transform="matrix(0.06172839506172839,0,0,0.06172839506172839,76.35802469135803,0)" xlink:href="#al"/><use transform="matrix(0.06172839506172839,0,0,0.06172839506172839,88.70370370370371,0)" xlink:href="#at"/><use transform="matrix(0.06172839506172839,0,0,0.06172839506172839,96.0493827160494,0)" xlink:href="#av"/></g><path fill="#666" d="M6 0l48-248h52L58 0H6" id="aw"/><path fill="#666" d="M151-194c95 0 34 128 28 194h-49l25-134c0-29-45-25-59-9C67-111 69-48 56 0H6l36-190h47l-4 32c15-20 33-36 66-36" id="ax"/><path fill="#666" d="M156-122c2-23-7-37-28-37-47 0-58 44-58 89 0 24 12 40 36 40 43 0 47-49 50-92zM-8 75l50-265h48c0 10-3 24-3 30 22-50 127-45 121 29-6 73-21 135-92 135-29 0-46-14-55-35L41 75H-8" id="ay"/><path fill="#666" d="M69 3c-96 0-34-126-28-193h49L65-57c6 42 62 18 71-6 14-38 17-86 28-127h50L178 0h-47c0-11 4-26 3-33-14 20-30 37-65 36" id="az"/><path fill="#666" d="M72-63c-8 23 5 39 32 30L98-1C54 14 12-6 23-64l18-93H15l7-33h28l24-45h31l-8 45h35l-6 33H90" id="aA"/><g id="l"><use transform="matrix(0.06172839506172839,0,0,0.06172839506172839,0,0)" xlink:href="#aw"/><use transform="matrix(0.06172839506172839,0,0,0.06172839506172839,6.172839506172839,0)" xlink:href="#ax"/><use transform="matrix(0.06172839506172839,0,0,0.06172839506172839,19.691358024691358,0)" xlink:href="#ay"/><use transform="matrix(0.06172839506172839,0,0,0.06172839506172839,33.20987654320987,0)" xlink:href="#az"/><use transform="matrix(0.06172839506172839,0,0,0.06172839506172839,46.72839506172839,0)" xlink:href="#aA"/></g><path fill="#666" d="M93-157L62 0H13l31-157H16l6-33h28c2-54 40-81 100-68l-6 32c-29-8-44 9-45 36h38l-7 33H93" id="aB"/><path fill="#666" d="M50-224l7-37h49l-7 37H50zM6 0l37-190h49L55 0H6" id="aC"/><path fill="#666" d="M6 0l51-261h49L55 0H6" id="aD"/><path fill="#666" d="M114-194c63-2 87 48 72 110H63c-3 28 1 55 31 54 21-1 32-13 37-29l44 13C160-14 137 4 91 4 41 4 11-22 11-73c0-71 33-119 103-121zm30 77c14-47-50-61-67-22-3 6-6 13-8 22h75" id="aE"/><path fill="#666" d="M144-137c-1-29-70-35-71-2 16 41 103 10 103 80C176 9 79 16 32-9 18-17 9-31 4-48l44-6c3 32 80 36 82 1-15-42-103-11-103-82 0-77 157-79 161-8" id="aF"/><g id="m"><use transform="matrix(0.06172839506172839,0,0,0.06172839506172839,0,0)" xlink:href="#aB"/><use transform="matrix(0.06172839506172839,0,0,0.06172839506172839,7.345679012345679,0)" xlink:href="#aC"/><use transform="matrix(0.06172839506172839,0,0,0.06172839506172839,13.518518518518519,0)" xlink:href="#aD"/><use transform="matrix(0.06172839506172839,0,0,0.06172839506172839,19.691358024691358,0)" xlink:href="#aE"/><use transform="matrix(0.06172839506172839,0,0,0.06172839506172839,32.03703703703704,0)" xlink:href="#aF"/></g><path fill="#666" d="M87-220l-18 92h140l-5 28H64L45 0H11l48-248h178l-5 28H87" id="aG"/><path fill="#666" d="M187 0l-14-72H61L19 0h-37l149-248h38L221 0h-34zm-19-99l-22-123L76-99h92" id="aH"/><path fill="#666" d="M194-120c59 52 2 134-86 124-53-6-90-18-98-63l31-7c8 30 29 43 70 43 46 0 84-17 71-62-32-43-135-20-137-98-3-89 178-90 191-16l-30 9c-8-48-127-53-127 5 0 53 81 35 115 65" id="aI"/><path fill="#666" d="M151-220L108 0H75l42-220H32l6-28h203l-5 28h-85" id="aJ"/><path fill="#666" d="M24-61C-1-165 59-251 163-251c67 1 105 36 105 101 0 88-46 140-124 152 2 33 24 47 60 39l-3 23c-50 15-89-11-89-61-46-3-79-26-88-64zm210-73c6-55-18-91-72-90-77 1-111 51-111 125 0 49 24 75 73 75 72 0 103-45 110-110" id="aK"/><g id="n"><use transform="matrix(0.05555555555555555,0,0,0.05555555555555555,0,0)" xlink:href="#aG"/><use transform="matrix(0.05555555555555555,0,0,0.05555555555555555,10.666666666666666,0)" xlink:href="#aH"/><use transform="matrix(0.05555555555555555,0,0,0.05555555555555555,24,0)" xlink:href="#aI"/><use transform="matrix(0.05555555555555555,0,0,0.05555555555555555,37.33333333333333,0)" xlink:href="#aJ"/><use transform="matrix(0.05555555555555555,0,0,0.05555555555555555,49.49999999999999,0)" xlink:href="#aK"/></g><path fill="#666" d="M222 0l43-216c-8 16-17 34-26 49L143 0h-22L81-216 41 0H11l48-248h42l38 208 116-208h45L252 0h-30" id="aL"/><path fill="#666" d="M-20 4l123-265h28L8 4h-28" id="aM"/><path fill="#666" d="M219-77C219 17 104-2 11 0l48-248c73 2 169-15 169 57 0 38-24 54-60 60 29 5 51 21 51 54zm-26-111c0-44-62-31-105-33l-16 79c55 0 121 9 121-46zm-7 110c-1-49-69-36-119-38L50-27c61-1 137 12 136-51" id="aN"/><path fill="#666" d="M125-24c46 0 70-25 89-51l25 16C214-24 183 4 123 4 8 4-5-146 60-208c32-50 158-61 191-5 5 7 9 14 11 22l-32 10c-9-28-33-43-69-43-74 0-108 51-108 125 0 46 24 75 72 75" id="aO"/><path fill="#666" d="M249-183c0 48-29 72-75 77L221 0h-36l-43-103H65L45 0H11l48-248c83 2 190-17 190 65zm-34 3c0-55-74-39-127-41l-18 92c63-1 145 13 145-51" id="aP"/><g id="o"><use transform="matrix(0.05555555555555555,0,0,0.05555555555555555,0,0)" xlink:href="#aI"/><use transform="matrix(0.05555555555555555,0,0,0.05555555555555555,13.333333333333332,0)" xlink:href="#aH"/><use transform="matrix(0.05555555555555555,0,0,0.05555555555555555,26.666666666666664,0)" xlink:href="#aL"/><use transform="matrix(0.05555555555555555,0,0,0.05555555555555555,43.27777777777777,0)" xlink:href="#aM"/><use transform="matrix(0.05555555555555555,0,0,0.05555555555555555,48.83333333333333,0)" xlink:href="#aN"/><use transform="matrix(0.05555555555555555,0,0,0.05555555555555555,62.166666666666664,0)" xlink:href="#aH"/><use transform="matrix(0.05555555555555555,0,0,0.05555555555555555,75.49999999999999,0)" xlink:href="#aL"/><use transform="matrix(0.05555555555555555,0,0,0.05555555555555555,92.1111111111111,0)" xlink:href="#aM"/><use transform="matrix(0.05555555555555555,0,0,0.05555555555555555,97.66666666666666,0)" xlink:href="#aO"/><use transform="matrix(0.05555555555555555,0,0,0.05555555555555555,112.05555555555554,0)" xlink:href="#aP"/><use transform="matrix(0.05555555555555555,0,0,0.05555555555555555,126.44444444444444,0)" xlink:href="#aH"/><use transform="matrix(0.05555555555555555,0,0,0.05555555555555555,139.77777777777777,0)" xlink:href="#aL"/></g><path fill="#666" d="M161-211c-63 0-91 46-91 110 0 39 17 65 58 64 38-1 60-20 74-45l40 20C220-23 184 0 125 4 9 13-10-144 57-208c33-50 166-62 196-1 4 8 9 18 11 27l-48 12c-6-24-25-41-55-41" id="aQ"/><path fill="#666" d="M124-194c51 0 84 22 84 74C207-44 167 4 94 4 43 4 11-23 11-74c0-74 41-120 113-120zM99-30c46 0 58-42 58-86 0-27-11-44-37-44-44 0-55 40-57 84-1 27 10 45 36 46" id="aR"/><path fill="#666" d="M45-171c29-32 103-29 114 14 2-11 5-23 8-33h47L176-2c-3 70-92 96-155 64C9 56 1 42-1 25l50-5c2 28 48 27 63 11 13-13 20-45 21-66-13 20-30 35-62 36-87 3-60-134-26-172zM94-35c41-3 55-43 55-86 0-24-12-39-35-39-43 0-51 48-51 90 0 22 9 37 31 35" id="aS"/><path fill="#666" d="M84-151c13-25 34-51 72-40l-8 41C67-170 71-64 56 0H6l36-190h47" id="aT"/><g id="p"><use transform="matrix(0.06172839506172839,0,0,0.06172839506172839,0,0)" xlink:href="#aQ"/><use transform="matrix(0.06172839506172839,0,0,0.06172839506172839,15.987654320987653,0)" xlink:href="#aR"/><use transform="matrix(0.06172839506172839,0,0,0.06172839506172839,29.50617283950617,0)" xlink:href="#ax"/><use transform="matrix(0.06172839506172839,0,0,0.06172839506172839,43.02469135802469,0)" xlink:href="#aB"/><use transform="matrix(0.06172839506172839,0,0,0.06172839506172839,50.37037037037037,0)" xlink:href="#aC"/><use transform="matrix(0.06172839506172839,0,0,0.06172839506172839,56.54320987654321,0)" xlink:href="#aS"/><use transform="matrix(0.06172839506172839,0,0,0.06172839506172839,70.06172839506172,0)" xlink:href="#az"/><use transform="matrix(0.06172839506172839,0,0,0.06172839506172839,83.58024691358024,0)" xlink:href="#aT"/><use transform="matrix(0.06172839506172839,0,0,0.06172839506172839,92.22222222222221,0)" xlink:href="#aE"/></g><path fill="#666" d="M241-173c-1 82-78 91-166 86L58 0H6l48-248c87 0 188-12 187 75zm-53 2c0-43-48-36-90-36l-15 80c50 0 105 7 105-44" id="aU"/><path fill="#666" d="M166-52c-4 17 5 29 24 23l-3 27c-30 11-74 1-67-34C105-15 91 4 56 4 23 4 3-15 2-49c0-64 63-67 128-67 10-22 3-53-29-45-13 3-22 10-25 24l-46-5c5-64 156-77 153 0-1 33-11 60-17 90zM97-88c-44-9-64 57-19 57 31 0 42-28 47-57H97" id="aV"/><path fill="#666" d="M255-194c90 0 29 129 24 194h-49l25-136c-7-39-53-14-60 9-12 38-18 85-28 127h-49l25-136c2-29-39-23-50-7C69-108 68-47 56 0H6l36-190h48c-1 10-6 24-4 32 12-20 27-36 57-36s46 15 50 41c14-21 29-41 62-41" id="aW"/><g id="q"><use transform="matrix(0.06172839506172839,0,0,0.06172839506172839,0,0)" xlink:href="#aU"/><use transform="matrix(0.06172839506172839,0,0,0.06172839506172839,14.814814814814813,0)" xlink:href="#aV"/><use transform="matrix(0.06172839506172839,0,0,0.06172839506172839,27.160493827160494,0)" xlink:href="#aT"/><use transform="matrix(0.06172839506172839,0,0,0.06172839506172839,35.80246913580247,0)" xlink:href="#aV"/><use transform="matrix(0.06172839506172839,0,0,0.06172839506172839,48.148148148148145,0)" xlink:href="#aW"/><use transform="matrix(0.06172839506172839,0,0,0.06172839506172839,67.90123456790123,0)" xlink:href="#aE"/><use transform="matrix(0.06172839506172839,0,0,0.06172839506172839,80.24691358024691,0)" xlink:href="#aA"/><use transform="matrix(0.06172839506172839,0,0,0.06172839506172839,87.5925925925926,0)" xlink:href="#aE"/><use transform="matrix(0.06172839506172839,0,0,0.06172839506172839,99.93827160493828,0)" xlink:href="#aT"/><use transform="matrix(0.06172839506172839,0,0,0.06172839506172839,108.58024691358025,0)" xlink:href="#aF"/></g><path fill="#666" d="M65-168c29 0 50 18 50 48S94-70 65-70c-30 0-48-21-48-50s19-48 48-48" id="aX"/><use transform="matrix(0.05555555555555555,0,0,0.05555555555555555,0,0)" xlink:href="#aX" id="r"/><path fill="#666" d="M14 0l48-248h34L48 0H14" id="aY"/><path fill="#666" d="M67-158c22-48 132-52 116 29L158 0h-32l25-140c3-38-53-32-70-12C52-117 51-52 38 0H6l36-190h30" id="aZ"/><path fill="#666" d="M67-162c32-53 139-36 121 50C175-51 163 2 97 4 68 4 52-11 42-31 38 6 28 39 22 75H-9l50-265h29c-1 10 0 20-3 28zm89 36c0-26-10-43-35-43-54 0-67 50-69 103-1 29 14 45 42 46 53 0 62-58 62-106" id="ba"/><path fill="#666" d="M67 3c-93-2-31-127-26-193h32L48-50c-3 39 53 32 70 12 30-34 30-101 43-152h32L157 0h-30c1-10 6-24 4-33-14 20-29 37-64 36" id="bb"/><path fill="#666" d="M51-54c-9 22 5 41 31 30L79-1C43 14 10-4 19-52l22-115H19l5-23h22l19-43h21l-9 43h35l-4 23H73" id="bc"/><g id="s"><use transform="matrix(0.05555555555555555,0,0,0.05555555555555555,0,0)" xlink:href="#aY"/><use transform="matrix(0.05555555555555555,0,0,0.05555555555555555,5.555555555555555,0)" xlink:href="#aZ"/><use transform="matrix(0.05555555555555555,0,0,0.05555555555555555,16.666666666666664,0)" xlink:href="#ba"/><use transform="matrix(0.05555555555555555,0,0,0.05555555555555555,27.777777777777775,0)" xlink:href="#bb"/><use transform="matrix(0.05555555555555555,0,0,0.05555555555555555,38.888888888888886,0)" xlink:href="#bc"/></g><path fill="#666" d="M111-194c62-3 86 47 72 106H45c-7 38 6 69 45 68 27-1 43-14 53-32l24 11C152-15 129 4 87 4 38 3 12-23 12-71c0-70 32-119 99-123zm44 81c14-66-71-72-95-28-4 8-8 17-11 28h106" id="bd"/><path fill="#666" d="M165-48c-4 18 1 34 23 27l-3 20c-29 8-62 0-52-35h-2C116-14 99 4 63 4 30 4 8-16 8-49c0-68 71-67 138-67 10-26 0-56-31-54-26 1-42 9-47 31l-32-5c8-67 160-71 144 15-5 28-9 54-15 81zM42-50c3 52 80 24 89-6 7-12 7-24 11-38-47 1-103-4-100 44" id="be"/><path fill="#666" d="M133-28C103 26-5 8 13-77c13-62 24-115 90-117 29-1 46 15 56 35l19-102h32L160 0h-30zM45-64c-2 27 10 43 35 43 54-1 69-50 69-103 0-29-15-46-42-46-53-1-58 58-62 106" id="bf"/><g id="t"><use transform="matrix(0.05555555555555555,0,0,0.05555555555555555,0,0)" xlink:href="#aL"/><use transform="matrix(0.05555555555555555,0,0,0.05555555555555555,16.61111111111111,0)" xlink:href="#bd"/><use transform="matrix(0.05555555555555555,0,0,0.05555555555555555,27.72222222222222,0)" xlink:href="#bc"/><use transform="matrix(0.05555555555555555,0,0,0.05555555555555555,33.27777777777778,0)" xlink:href="#be"/><use transform="matrix(0.05555555555555555,0,0,0.05555555555555555,44.388888888888886,0)" xlink:href="#bf"/><use transform="matrix(0.05555555555555555,0,0,0.05555555555555555,55.5,0)" xlink:href="#be"/><use transform="matrix(0.05555555555555555,0,0,0.05555555555555555,66.61111111111111,0)" xlink:href="#bc"/><use transform="matrix(0.05555555555555555,0,0,0.05555555555555555,72.16666666666667,0)" xlink:href="#be"/></g><path fill="#666" d="M30-147c31-64 166-65 159 27C183-49 158 1 86 4 9 8 1-88 30-147zM88-20c53 0 68-48 68-100 0-31-11-51-44-50-52 1-68 46-68 97 0 32 13 53 44 53" id="bg"/><path fill="#666" d="M127 0L80-88 50-66 37 0H6l51-261h31L57-100l99-90h39l-93 82L161 0h-34" id="bh"/><path fill="#666" d="M50-231l6-30h32l-6 30H50zM6 0l37-190h31L37 0H6" id="bi"/><path fill="#666" d="M-8 0l5-24 140-142H31l5-24h145l-5 24L36-24h119l-5 24H-8" id="bj"/><g id="u"><use transform="matrix(0.05555555555555555,0,0,0.05555555555555555,0,0)" xlink:href="#aJ"/><use transform="matrix(0.05555555555555555,0,0,0.05555555555555555,10.333333333333332,0)" xlink:href="#bg"/><use transform="matrix(0.05555555555555555,0,0,0.05555555555555555,21.444444444444443,0)" xlink:href="#bh"/><use transform="matrix(0.05555555555555555,0,0,0.05555555555555555,31.444444444444443,0)" xlink:href="#bd"/><use transform="matrix(0.05555555555555555,0,0,0.05555555555555555,42.55555555555556,0)" xlink:href="#aZ"/><use transform="matrix(0.05555555555555555,0,0,0.05555555555555555,53.66666666666667,0)" xlink:href="#bi"/><use transform="matrix(0.05555555555555555,0,0,0.05555555555555555,58.05555555555555,0)" xlink:href="#bj"/><use transform="matrix(0.05555555555555555,0,0,0.05555555555555555,68.05555555555556,0)" xlink:href="#be"/><use transform="matrix(0.05555555555555555,0,0,0.05555555555555555,79.16666666666667,0)" xlink:href="#bc"/><use transform="matrix(0.05555555555555555,0,0,0.05555555555555555,84.72222222222223,0)" xlink:href="#bi"/><use transform="matrix(0.05555555555555555,0,0,0.05555555555555555,89.11111111111111,0)" xlink:href="#bg"/><use transform="matrix(0.05555555555555555,0,0,0.05555555555555555,100.22222222222223,0)" xlink:href="#aZ"/></g><path fill="#666" d="M66-151c12-25 30-51 66-40l-6 26C45-176 58-65 38 0H6l36-190h30" id="bk"/><path fill="#666" d="M44-68c0 29 11 47 38 47 30 0 42-19 51-41l28 9C148-21 126 4 82 4 31 4 10-29 12-85c3-77 74-140 146-93 12 8 15 23 18 40l-31 5c-1-22-13-36-36-36-52 0-65 49-65 101" id="bl"/><g id="v"><use transform="matrix(0.05555555555555555,0,0,0.05555555555555555,0,0)" xlink:href="#aN"/><use transform="matrix(0.05555555555555555,0,0,0.05555555555555555,13.333333333333332,0)" xlink:href="#be"/><use transform="matrix(0.05555555555555555,0,0,0.05555555555555555,24.444444444444443,0)" xlink:href="#bk"/><use transform="matrix(0.05555555555555555,0,0,0.05555555555555555,31.055555555555554,0)" xlink:href="#bl"/><use transform="matrix(0.05555555555555555,0,0,0.05555555555555555,41.05555555555556,0)" xlink:href="#bg"/><use transform="matrix(0.05555555555555555,0,0,0.05555555555555555,52.16666666666667,0)" xlink:href="#bf"/><use transform="matrix(0.05555555555555555,0,0,0.05555555555555555,63.277777777777786,0)" xlink:href="#bd"/></g><path fill="#666" d="M55-144c13 50 104 24 104 88C159 21 15 23 1-39l26-10c6 40 102 42 102-4-13-50-104-23-104-87 0-71 143-71 148-8l-29 4c-5-35-85-37-89 0" id="bm"/><g id="w"><use transform="matrix(0.05555555555555555,0,0,0.05555555555555555,0,0)" xlink:href="#bm"/><use transform="matrix(0.05555555555555555,0,0,0.05555555555555555,10,0)" xlink:href="#bd"/><use transform="matrix(0.05555555555555555,0,0,0.05555555555555555,21.11111111111111,0)" xlink:href="#bc"/><use transform="matrix(0.05555555555555555,0,0,0.05555555555555555,26.666666666666664,0)" xlink:href="#bm"/></g><path fill="#666" d="M238-179c0 84-86 86-175 82L45 0H11l48-248c82 0 179-12 179 69zm-34 1c0-53-64-42-116-43l-19 98c63 0 135 9 135-55" id="bn"/><g id="x"><use transform="matrix(0.05555555555555555,0,0,0.05555555555555555,0,0)" xlink:href="#bn"/><use transform="matrix(0.05555555555555555,0,0,0.05555555555555555,13.333333333333332,0)" xlink:href="#bk"/><use transform="matrix(0.05555555555555555,0,0,0.05555555555555555,19.944444444444443,0)" xlink:href="#bi"/><use transform="matrix(0.05555555555555555,0,0,0.05555555555555555,24.333333333333332,0)" xlink:href="#bg"/><use transform="matrix(0.05555555555555555,0,0,0.05555555555555555,35.44444444444444,0)" xlink:href="#bk"/></g><path fill="#666" d="M248-111c6-24 9-61-24-58-72 9-57 108-77 169h-31l26-142c3-37-50-30-64-10C52-115 50-51 37 0H6l36-190h30c-1 10-6 24-4 32 13-43 101-52 105 5 13-22 29-41 61-41 90 0 28 129 23 194h-31" id="bo"/><path fill="#666" d="M6 0l50-261h32L37 0H6" id="bp"/><g id="y"><use transform="matrix(0.05555555555555555,0,0,0.05555555555555555,0,0)" xlink:href="#aZ"/><use transform="matrix(0.05555555555555555,0,0,0.05555555555555555,11.11111111111111,0)" xlink:href="#bg"/><use transform="matrix(0.05555555555555555,0,0,0.05555555555555555,22.22222222222222,0)" xlink:href="#bk"/><use transform="matrix(0.05555555555555555,0,0,0.05555555555555555,28.833333333333332,0)" xlink:href="#bo"/><use transform="matrix(0.05555555555555555,0,0,0.05555555555555555,45.44444444444444,0)" xlink:href="#be"/><use transform="matrix(0.05555555555555555,0,0,0.05555555555555555,56.55555555555556,0)" xlink:href="#bp"/><use transform="matrix(0.05555555555555555,0,0,0.05555555555555555,60.94444444444444,0)" xlink:href="#bi"/><use transform="matrix(0.05555555555555555,0,0,0.05555555555555555,65.33333333333333,0)" xlink:href="#bj"/><use transform="matrix(0.05555555555555555,0,0,0.05555555555555555,75.33333333333333,0)" xlink:href="#be"/><use transform="matrix(0.05555555555555555,0,0,0.05555555555555555,86.44444444444444,0)" xlink:href="#bc"/><use transform="matrix(0.05555555555555555,0,0,0.05555555555555555,92,0)" xlink:href="#bi"/><use transform="matrix(0.05555555555555555,0,0,0.05555555555555555,96.38888888888889,0)" xlink:href="#bg"/><use transform="matrix(0.05555555555555555,0,0,0.05555555555555555,107.5,0)" xlink:href="#aZ"/></g><path fill="#666" d="M20-101c0-91 52-143 145-150 126-9 127 168 53 223-23 17-55 32-93 32C57 4 20-33 20-101zm216-33c5-57-18-91-73-90-77 1-110 51-110 125 0 49 23 75 73 75 72-1 104-45 110-110" id="bq"/><g id="z"><use transform="matrix(0.05555555555555555,0,0,0.05555555555555555,0,0)" xlink:href="#bq"/><use transform="matrix(0.05555555555555555,0,0,0.05555555555555555,15.555555555555555,0)" xlink:href="#bb"/><use transform="matrix(0.05555555555555555,0,0,0.05555555555555555,26.666666666666664,0)" xlink:href="#bc"/><use transform="matrix(0.05555555555555555,0,0,0.05555555555555555,32.22222222222222,0)" xlink:href="#ba"/><use transform="matrix(0.05555555555555555,0,0,0.05555555555555555,43.33333333333333,0)" xlink:href="#bb"/><use transform="matrix(0.05555555555555555,0,0,0.05555555555555555,54.44444444444444,0)" xlink:href="#bc"/></g><path fill="#666" d="M18-101c0-91 52-150 145-150 68 0 111 34 111 101C274-54 221 4 128 4 59 4 18-33 18-101zm202-32c4-46-15-77-59-77-65 0-88 46-91 108-2 41 22 65 60 65 60 0 84-40 90-96" id="br"/><g id="A"><use transform="matrix(0.06172839506172839,0,0,0.06172839506172839,0,0)" xlink:href="#br"/><use transform="matrix(0.06172839506172839,0,0,0.06172839506172839,17.28395061728395,0)" xlink:href="#az"/><use transform="matrix(0.06172839506172839,0,0,0.06172839506172839,30.80246913580247,0)" xlink:href="#aA"/><use transform="matrix(0.06172839506172839,0,0,0.06172839506172839,38.148148148148145,0)" xlink:href="#ay"/><use transform="matrix(0.06172839506172839,0,0,0.06172839506172839,51.666666666666664,0)" xlink:href="#az"/><use transform="matrix(0.06172839506172839,0,0,0.06172839506172839,65.18518518518518,0)" xlink:href="#aA"/></g><g id="B"><use transform="matrix(0.05555555555555555,0,0,0.05555555555555555,0,0)" xlink:href="#aI"/><use transform="matrix(0.05555555555555555,0,0,0.05555555555555555,13.333333333333332,0)" xlink:href="#aH"/><use transform="matrix(0.05555555555555555,0,0,0.05555555555555555,26.666666666666664,0)" xlink:href="#aL"/><use transform="matrix(0.05555555555555555,0,0,0.05555555555555555,43.27777777777777,0)" xlink:href="#aM"/><use transform="matrix(0.05555555555555555,0,0,0.05555555555555555,48.83333333333333,0)" xlink:href="#aN"/><use transform="matrix(0.05555555555555555,0,0,0.05555555555555555,62.166666666666664,0)" xlink:href="#aH"/><use transform="matrix(0.05555555555555555,0,0,0.05555555555555555,75.49999999999999,0)" xlink:href="#aL"/><use transform="matrix(0.05555555555555555,0,0,0.05555555555555555,92.1111111111111,0)" xlink:href="#aM"/><use transform="matrix(0.05555555555555555,0,0,0.05555555555555555,97.66666666666666,0)" xlink:href="#aO"/><use transform="matrix(0.05555555555555555,0,0,0.05555555555555555,112.05555555555554,0)" xlink:href="#aP"/><use transform="matrix(0.05555555555555555,0,0,0.05555555555555555,126.44444444444444,0)" xlink:href="#aH"/><use transform="matrix(0.05555555555555555,0,0,0.05555555555555555,139.77777777777777,0)" xlink:href="#aL"/></g><path fill="#666" d="M54-68v-132l118 66" id="bs"/><use transform="matrix(0.05555555555555555,0,0,0.05555555555555555,0,0)" xlink:href="#bs" id="C"/><path fill="#666" d="M76-167L44 0H12l33-167H18l4-23h27c3-47 25-81 82-69l-4 24c-35-8-44 15-46 45h37l-5 23H76" id="bt"/><g id="D"><use transform="matrix(0.05555555555555555,0,0,0.05555555555555555,0,0)" xlink:href="#aO"/><use transform="matrix(0.05555555555555555,0,0,0.05555555555555555,14.388888888888888,0)" xlink:href="#bp"/><use transform="matrix(0.05555555555555555,0,0,0.05555555555555555,18.777777777777775,0)" xlink:href="#be"/><use transform="matrix(0.05555555555555555,0,0,0.05555555555555555,29.888888888888886,0)" xlink:href="#bm"/><use transform="matrix(0.05555555555555555,0,0,0.05555555555555555,39.888888888888886,0)" xlink:href="#bm"/><use transform="matrix(0.05555555555555555,0,0,0.05555555555555555,49.888888888888886,0)" xlink:href="#bi"/><use transform="matrix(0.05555555555555555,0,0,0.05555555555555555,54.27777777777777,0)" xlink:href="#bt"/><use transform="matrix(0.05555555555555555,0,0,0.05555555555555555,59.83333333333333,0)" xlink:href="#bi"/><use transform="matrix(0.05555555555555555,0,0,0.05555555555555555,64.22222222222221,0)" xlink:href="#bd"/><use transform="matrix(0.05555555555555555,0,0,0.05555555555555555,75.33333333333333,0)" xlink:href="#bf"/></g><path fill="#666" d="M62-99C39-31 123 0 170-40s38-139 58-208h34C234-144 253 4 115 4 49 4 18-43 31-112l26-136h34" id="bu"/><g id="E"><use transform="matrix(0.05555555555555555,0,0,0.05555555555555555,0,0)" xlink:href="#bu"/><use transform="matrix(0.05555555555555555,0,0,0.05555555555555555,14.388888888888888,0)" xlink:href="#aZ"/><use transform="matrix(0.05555555555555555,0,0,0.05555555555555555,25.5,0)" xlink:href="#bl"/><use transform="matrix(0.05555555555555555,0,0,0.05555555555555555,35.5,0)" xlink:href="#bp"/><use transform="matrix(0.05555555555555555,0,0,0.05555555555555555,39.888888888888886,0)" xlink:href="#be"/><use transform="matrix(0.05555555555555555,0,0,0.05555555555555555,51,0)" xlink:href="#bm"/><use transform="matrix(0.05555555555555555,0,0,0.05555555555555555,61,0)" xlink:href="#bm"/><use transform="matrix(0.05555555555555555,0,0,0.05555555555555555,71,0)" xlink:href="#bi"/><use transform="matrix(0.05555555555555555,0,0,0.05555555555555555,75.38888888888889,0)" xlink:href="#bt"/><use transform="matrix(0.05555555555555555,0,0,0.05555555555555555,80.94444444444444,0)" xlink:href="#bi"/><use transform="matrix(0.05555555555555555,0,0,0.05555555555555555,85.33333333333333,0)" xlink:href="#bd"/><use transform="matrix(0.05555555555555555,0,0,0.05555555555555555,96.44444444444444,0)" xlink:href="#bf"/></g><path fill="#666" d="M250-142C247-53 197 0 108 0H6l48-248c105-5 200 3 196 106zm-49 2c1-57-42-72-103-68L66-40c84 6 135-22 135-100" id="bv"/><path fill="#666" d="M127 0L95-67 37 0h-53l89-99-49-91h52l30 61 52-61h54l-85 92 52 98h-52" id="bw"/><g id="F"><use transform="matrix(0.06172839506172839,0,0,0.06172839506172839,0,0)" xlink:href="#bv"/><use transform="matrix(0.06172839506172839,0,0,0.06172839506172839,15.987654320987653,0)" xlink:href="#aE"/><use transform="matrix(0.06172839506172839,0,0,0.06172839506172839,28.333333333333332,0)" xlink:href="#aW"/><use transform="matrix(0.06172839506172839,0,0,0.06172839506172839,48.08641975308642,0)" xlink:href="#az"/><use transform="matrix(0.06172839506172839,0,0,0.06172839506172839,61.60493827160494,0)" xlink:href="#bw"/></g><path fill="#666" d="M258-177c0 46-32 67-71 75L235 0h-57l-41-94H76L58 0H6l48-248c89 2 204-19 204 71zm-53 3c0-46-63-30-107-33l-14 73c51-2 120 13 121-40" id="bx"/><g id="G"><use transform="matrix(0.06172839506172839,0,0,0.06172839506172839,0,0)" xlink:href="#bx"/><use transform="matrix(0.06172839506172839,0,0,0.06172839506172839,15.987654320987653,0)" xlink:href="#aE"/><use transform="matrix(0.06172839506172839,0,0,0.06172839506172839,28.333333333333332,0)" xlink:href="#ay"/><use transform="matrix(0.06172839506172839,0,0,0.06172839506172839,41.85185185185185,0)" xlink:href="#aR"/><use transform="matrix(0.06172839506172839,0,0,0.06172839506172839,55.37037037037037,0)" xlink:href="#aT"/><use transform="matrix(0.06172839506172839,0,0,0.06172839506172839,64.01234567901234,0)" xlink:href="#aA"/></g><path fill="#666" d="M29-66c0 49 71 55 82 11 13-52 22-111 33-165H93l5-28h85L149-74C151 11 7 37-1-60" id="by"/><path fill="#666" d="M173 0L80-213 41 0H11l48-248h37l94 214 40-214h30L212 0h-39" id="bz"/><g id="H"><use transform="matrix(0.05555555555555555,0,0,0.05555555555555555,0,0)" xlink:href="#by"/><use transform="matrix(0.05555555555555555,0,0,0.05555555555555555,10,0)" xlink:href="#aI"/><use transform="matrix(0.05555555555555555,0,0,0.05555555555555555,23.333333333333332,0)" xlink:href="#bq"/><use transform="matrix(0.05555555555555555,0,0,0.05555555555555555,38.888888888888886,0)" xlink:href="#bz"/></g><path d="M241-173c-1 82-78 91-166 86L58 0H6l48-248c87 0 188-12 187 75zm-53 2c0-43-48-36-90-36l-15 80c50 0 105 7 105-44" id="bA"/><path d="M183 0l-10-63H79L44 0H-7l138-248h61L234 0h-51zm-14-102l-15-108c-16 38-36 73-55 108h70" id="bB"/><path d="M212 0l43-212L151 0h-37L90-212C82-137 65-70 52 0H6l48-248h70l20 187 93-187h69L258 0h-46" id="bC"/><path d="M6 0l48-248h52L66-40h133l-8 40H6" id="bD"/><path d="M250-142C247-53 197 0 108 0H6l48-248c105-5 200 3 196 106zm-49 2c1-57-42-72-103-68L66-40c84 6 135-22 135-100" id="bE"/><g id="I"><use transform="matrix(0.06172839506172839,0,0,0.06172839506172839,0,0)" xlink:href="#bA"/><use transform="matrix(0.06172839506172839,0,0,0.06172839506172839,13.148148148148147,0)" xlink:href="#bB"/><use transform="matrix(0.06172839506172839,0,0,0.06172839506172839,29.1358024691358,0)" xlink:href="#bC"/><use transform="matrix(0.06172839506172839,0,0,0.06172839506172839,47.59259259259259,0)" xlink:href="#bD"/><use transform="matrix(0.06172839506172839,0,0,0.06172839506172839,61.11111111111111,0)" xlink:href="#bE"/></g><g id="J"><use transform="matrix(0.06172839506172839,0,0,0.06172839506172839,0,0)" xlink:href="#au"/><use transform="matrix(0.06172839506172839,0,0,0.06172839506172839,12.345679012345679,0)" xlink:href="#at"/></g><g id="K"><use transform="matrix(0.06172839506172839,0,0,0.06172839506172839,0,0)" xlink:href="#bC"/><use transform="matrix(0.06172839506172839,0,0,0.06172839506172839,18.456790123456788,0)" xlink:href="#bE"/><use transform="matrix(0.06172839506172839,0,0,0.06172839506172839,34.44444444444444,0)" xlink:href="#bE"/></g><path fill="#666" d="M150-105c8-23 8-54-22-51-68 7-54 98-72 156H6l50-261h50L85-158c15-20 33-36 66-36 95 0 34 128 28 194h-49" id="bF"/><g id="L"><use transform="matrix(0.06172839506172839,0,0,0.06172839506172839,0,0)" xlink:href="#br"/><use transform="matrix(0.06172839506172839,0,0,0.06172839506172839,17.28395061728395,0)" xlink:href="#aA"/><use transform="matrix(0.06172839506172839,0,0,0.06172839506172839,24.629629629629626,0)" xlink:href="#bF"/><use transform="matrix(0.06172839506172839,0,0,0.06172839506172839,38.148148148148145,0)" xlink:href="#aE"/><use transform="matrix(0.06172839506172839,0,0,0.06172839506172839,50.49382716049382,0)" xlink:href="#aT"/></g><path d="M24-248c93 1 206-16 204 79-1 75-69 88-152 82V0H24v-248zm52 121c47 0 100 7 100-41 0-47-54-39-100-39v80" id="bG"/><path d="M135-150c-39-12-60 13-60 57V0H25l-1-190h47c2 13-1 29 3 40 6-28 27-53 61-41v41" id="bH"/><path d="M185-48c-13 30-37 53-82 52C43 2 14-33 14-96s30-98 90-98c62 0 83 45 84 108H66c0 31 8 55 39 56 18 0 30-7 34-22zm-45-69c5-46-57-63-70-21-2 6-4 13-4 21h74" id="bI"/><path d="M135-194c53 0 70 44 70 98 0 56-19 98-73 100-31 1-45-17-59-34 3 33 2 69 2 105H25l-1-265h48c2 10 0 23 3 31 11-24 29-35 60-35zM114-30c33 0 39-31 40-66 0-38-9-64-40-64-56 0-55 130 0 130" id="bJ"/><path d="M133-34C117-15 103 5 69 4 32 3 11-16 11-54c-1-60 55-63 116-61 1-26-3-47-28-47-18 1-26 9-28 27l-52-2c7-38 36-58 82-57s74 22 75 68l1 82c-1 14 12 18 25 15v27c-30 8-71 5-69-32zm-48 3c29 0 43-24 42-57-32 0-66-3-65 30 0 17 8 27 23 27" id="bK"/><g id="M"><use transform="matrix(0.06172839506172839,0,0,0.06172839506172839,0,0)" xlink:href="#bG"/><use transform="matrix(0.06172839506172839,0,0,0.06172839506172839,14.814814814814813,0)" xlink:href="#bH"/><use transform="matrix(0.06172839506172839,0,0,0.06172839506172839,23.456790123456788,0)" xlink:href="#bI"/><use transform="matrix(0.06172839506172839,0,0,0.06172839506172839,35.80246913580247,0)" xlink:href="#bJ"/><use transform="matrix(0.06172839506172839,0,0,0.06172839506172839,49.32098765432099,0)" xlink:href="#bK"/><use transform="matrix(0.06172839506172839,0,0,0.06172839506172839,61.666666666666664,0)" xlink:href="#bH"/><use transform="matrix(0.06172839506172839,0,0,0.06172839506172839,70.30864197530863,0)" xlink:href="#bI"/></g><path d="M169-182c-1-43-94-46-97-3 18 66 151 10 154 114 3 95-165 93-204 36-6-8-10-19-12-30l50-8c3 46 112 56 116 5-17-69-150-10-154-114-4-87 153-88 188-35 5 8 8 18 10 28" id="bL"/><path d="M195-6C206 82 75 100 31 46c-4-6-6-13-8-21l49-6c3 16 16 24 34 25 40 0 42-37 40-79-11 22-30 35-61 35-53 0-70-43-70-97 0-56 18-96 73-97 30 0 46 14 59 34l2-30h47zm-90-29c32 0 41-27 41-63 0-35-9-62-40-62-32 0-39 29-40 63 0 36 9 62 39 62" id="bM"/><path d="M220-157c-53 9-28 100-34 157h-49v-107c1-27-5-49-29-50C55-147 81-57 75 0H25l-1-190h47c2 12-1 28 3 38 10-53 101-56 108 0 13-22 24-43 59-42 82 1 51 116 57 194h-49v-107c-1-25-5-48-29-50" id="bN"/><path d="M135-194c87-1 58 113 63 194h-50c-7-57 23-157-34-157-59 0-34 97-39 157H25l-1-190h47c2 12-1 28 3 38 12-26 28-41 61-42" id="bO"/><path d="M115-3C79 11 28 4 28-45v-112H4v-33h27l15-45h31v45h36v33H77v99c-1 23 16 31 38 25v30" id="bP"/><g id="N"><use transform="matrix(0.06172839506172839,0,0,0.06172839506172839,0,0)" xlink:href="#bL"/><use transform="matrix(0.06172839506172839,0,0,0.06172839506172839,14.814814814814813,0)" xlink:href="#bI"/><use transform="matrix(0.06172839506172839,0,0,0.06172839506172839,27.160493827160494,0)" xlink:href="#bM"/><use transform="matrix(0.06172839506172839,0,0,0.06172839506172839,40.67901234567901,0)" xlink:href="#bN"/><use transform="matrix(0.06172839506172839,0,0,0.06172839506172839,60.4320987654321,0)" xlink:href="#bI"/><use transform="matrix(0.06172839506172839,0,0,0.06172839506172839,72.77777777777779,0)" xlink:href="#bO"/><use transform="matrix(0.06172839506172839,0,0,0.06172839506172839,86.2962962962963,0)" xlink:href="#bP"/></g><path d="M140-251c80 0 125 45 125 126S219 4 139 4C58 4 15-44 15-125s44-126 125-126zm-1 214c52 0 73-35 73-88 0-50-21-86-72-86-52 0-73 35-73 86s22 88 72 88" id="bQ"/><path d="M85 4C-2 5 27-109 22-190h50c7 57-23 150 33 157 60-5 35-97 40-157h50l1 190h-47c-2-12 1-28-3-38-12 25-28 42-61 42" id="bR"/><g id="O"><use transform="matrix(0.06172839506172839,0,0,0.06172839506172839,0,0)" xlink:href="#bQ"/><use transform="matrix(0.06172839506172839,0,0,0.06172839506172839,17.28395061728395,0)" xlink:href="#bR"/><use transform="matrix(0.06172839506172839,0,0,0.06172839506172839,30.80246913580247,0)" xlink:href="#bP"/><use transform="matrix(0.06172839506172839,0,0,0.06172839506172839,38.148148148148145,0)" xlink:href="#bJ"/><use transform="matrix(0.06172839506172839,0,0,0.06172839506172839,51.666666666666664,0)" xlink:href="#bR"/><use transform="matrix(0.06172839506172839,0,0,0.06172839506172839,65.18518518518518,0)" xlink:href="#bP"/></g><path d="M65-168c29 0 50 18 50 48S94-70 65-70c-30 0-48-21-48-50s19-48 48-48" id="bS"/><use transform="matrix(0.06172839506172839,0,0,0.06172839506172839,0,0)" xlink:href="#bS" id="P"/><path d="M11 0l48-248h184l-5 28H87l-15 79h140l-5 27H67L50-27h158l-5 27H11" id="bT"/><path d="M124 0L87-78 21 0h-35l86-98-46-92h33l34 74 61-74h37l-83 92 50 98h-34" id="bU"/><path d="M51-54c-9 22 5 41 31 30L79-1C43 14 10-4 19-52l22-115H19l5-23h22l19-43h21l-9 43h35l-4 23H73" id="bV"/><g id="Q"><use transform="matrix(0.06172839506172839,0,0,0.06172839506172839,0,0)" xlink:href="#bT"/><use transform="matrix(0.06172839506172839,0,0,0.06172839506172839,14.814814814814813,0)" xlink:href="#bU"/><use transform="matrix(0.06172839506172839,0,0,0.06172839506172839,25.925925925925924,0)" xlink:href="#bV"/><use transform="matrix(0.06172839506172839,0,0,0.06172839506172839,32.098765432098766,0)" xlink:href="#at"/><use transform="matrix(0.06172839506172839,0,0,0.06172839506172839,39.44444444444444,0)" xlink:href="#al"/><use transform="matrix(0.06172839506172839,0,0,0.06172839506172839,51.79012345679012,0)" xlink:href="#ar"/><use transform="matrix(0.06172839506172839,0,0,0.06172839506172839,62.90123456790123,0)" xlink:href="#bV"/></g><path d="M127 0L80-88 50-66 37 0H6l51-261h31L57-100l99-90h39l-93 82L161 0h-34" id="bW"/><path d="M67-158c22-48 132-52 116 29L158 0h-32l25-140c3-38-53-32-70-12C52-117 51-52 38 0H6l36-190h30" id="bX"/><g id="R"><use transform="matrix(0.06172839506172839,0,0,0.06172839506172839,0,0)" xlink:href="#bV"/><use transform="matrix(0.06172839506172839,0,0,0.06172839506172839,6.172839506172839,0)" xlink:href="#au"/><use transform="matrix(0.06172839506172839,0,0,0.06172839506172839,18.51851851851852,0)" xlink:href="#bW"/><use transform="matrix(0.06172839506172839,0,0,0.06172839506172839,29.62962962962963,0)" xlink:href="#ap"/><use transform="matrix(0.06172839506172839,0,0,0.06172839506172839,41.97530864197531,0)" xlink:href="#bX"/><use transform="matrix(0.06172839506172839,0,0,0.06172839506172839,54.32098765432099,0)" xlink:href="#ak"/></g><path d="M187 0l-14-72H61L19 0h-37l149-248h38L221 0h-34zm-19-99l-22-123L76-99h92" id="bY"/><path d="M68-162c25-46 127-43 121 31C183-60 169 1 98 4 69 5 53-11 43-31L36 0H5l52-261h31zm88 36c2-27-9-43-34-43-55 0-70 51-70 103 0 29 15 45 43 46 52 0 58-58 61-106" id="bZ"/><g id="S"><use transform="matrix(0.06172839506172839,0,0,0.06172839506172839,0,0)" xlink:href="#bY"/><use transform="matrix(0.06172839506172839,0,0,0.06172839506172839,14.814814814814813,0)" xlink:href="#ak"/><use transform="matrix(0.06172839506172839,0,0,0.06172839506172839,25.925925925925924,0)" xlink:href="#ak"/><use transform="matrix(0.06172839506172839,0,0,0.06172839506172839,37.03703703703704,0)" xlink:href="#ap"/><use transform="matrix(0.06172839506172839,0,0,0.06172839506172839,49.382716049382715,0)" xlink:href="#am"/><use transform="matrix(0.06172839506172839,0,0,0.06172839506172839,67.8395061728395,0)" xlink:href="#bZ"/><use transform="matrix(0.06172839506172839,0,0,0.06172839506172839,80.18518518518519,0)" xlink:href="#ao"/><use transform="matrix(0.06172839506172839,0,0,0.06172839506172839,85.06172839506173,0)" xlink:href="#ap"/></g><path d="M76-167L44 0H12l33-167H18l4-23h27c3-47 25-81 82-69l-4 24c-35-8-44 15-46 45h37l-5 23H76" id="ca"/><g id="T"><use transform="matrix(0.06172839506172839,0,0,0.06172839506172839,0,0)" xlink:href="#bV"/><use transform="matrix(0.06172839506172839,0,0,0.06172839506172839,6.172839506172839,0)" xlink:href="#at"/><use transform="matrix(0.06172839506172839,0,0,0.06172839506172839,13.518518518518519,0)" xlink:href="#al"/><use transform="matrix(0.06172839506172839,0,0,0.06172839506172839,25.864197530864196,0)" xlink:href="#bX"/><use transform="matrix(0.06172839506172839,0,0,0.06172839506172839,38.20987654320987,0)" xlink:href="#ak"/><use transform="matrix(0.06172839506172839,0,0,0.06172839506172839,49.32098765432099,0)" xlink:href="#ca"/><use transform="matrix(0.06172839506172839,0,0,0.06172839506172839,55.49382716049383,0)" xlink:href="#au"/><use transform="matrix(0.06172839506172839,0,0,0.06172839506172839,67.8395061728395,0)" xlink:href="#at"/><use transform="matrix(0.06172839506172839,0,0,0.06172839506172839,75.18518518518519,0)" xlink:href="#am"/><use transform="matrix(0.06172839506172839,0,0,0.06172839506172839,93.64197530864197,0)" xlink:href="#ak"/></g><path d="M67-125c0 53 21 87 73 88 37 1 54-22 65-47l45 17C233-25 199 4 140 4 58 4 20-42 15-125 8-235 124-281 211-232c18 10 29 29 36 50l-46 12c-8-25-30-41-62-41-52 0-71 34-72 86" id="cb"/><path d="M110-194c64 0 96 36 96 99 0 64-35 99-97 99-61 0-95-36-95-99 0-62 34-99 96-99zm-1 164c35 0 45-28 45-65 0-40-10-65-43-65-34 0-45 26-45 65 0 36 10 65 43 65" id="cc"/><path d="M25-224v-37h50v37H25zM25 0v-190h50V0H25" id="cd"/><path d="M25 0v-261h50V0H25" id="ce"/><g id="U"><use transform="matrix(0.06172839506172839,0,0,0.06172839506172839,0,0)" xlink:href="#cb"/><use transform="matrix(0.06172839506172839,0,0,0.06172839506172839,15.987654320987653,0)" xlink:href="#cc"/><use transform="matrix(0.06172839506172839,0,0,0.06172839506172839,29.50617283950617,0)" xlink:href="#bN"/><use transform="matrix(0.06172839506172839,0,0,0.06172839506172839,49.25925925925925,0)" xlink:href="#bJ"/><use transform="matrix(0.06172839506172839,0,0,0.06172839506172839,62.77777777777777,0)" xlink:href="#cd"/><use transform="matrix(0.06172839506172839,0,0,0.06172839506172839,68.9506172839506,0)" xlink:href="#ce"/><use transform="matrix(0.06172839506172839,0,0,0.06172839506172839,75.12345679012344,0)" xlink:href="#bI"/></g><path d="M88-194c31-1 46 15 58 34l-1-101h50l1 261h-48c-2-10 0-23-3-31C134-8 116 4 84 4 32 4 16-41 15-95c0-56 19-97 73-99zm17 164c33 0 40-30 41-66 1-37-9-64-41-64s-38 30-39 65c0 43 13 65 39 65" id="cf"/><g id="V"><use transform="matrix(0.06172839506172839,0,0,0.06172839506172839,0,0)" xlink:href="#bK"/><use transform="matrix(0.06172839506172839,0,0,0.06172839506172839,12.345679012345679,0)" xlink:href="#bO"/><use transform="matrix(0.06172839506172839,0,0,0.06172839506172839,25.864197530864196,0)" xlink:href="#cf"/></g><path d="M147 0H94L2-248h55l64 206c17-72 42-137 63-206h54" id="cg"/><g id="W"><use transform="matrix(0.06172839506172839,0,0,0.06172839506172839,0,0)" xlink:href="#cg"/><use transform="matrix(0.06172839506172839,0,0,0.06172839506172839,13.580246913580245,0)" xlink:href="#bK"/><use transform="matrix(0.06172839506172839,0,0,0.06172839506172839,25.925925925925924,0)" xlink:href="#ce"/><use transform="matrix(0.06172839506172839,0,0,0.06172839506172839,32.098765432098766,0)" xlink:href="#cd"/><use transform="matrix(0.06172839506172839,0,0,0.06172839506172839,38.27160493827161,0)" xlink:href="#cf"/><use transform="matrix(0.06172839506172839,0,0,0.06172839506172839,51.79012345679013,0)" xlink:href="#bK"/><use transform="matrix(0.06172839506172839,0,0,0.06172839506172839,64.13580246913581,0)" xlink:href="#bP"/><use transform="matrix(0.06172839506172839,0,0,0.06172839506172839,71.4814814814815,0)" xlink:href="#bI"/></g><path d="M240-174c0 40-23 61-54 70L253 0h-59l-57-94H76V0H24v-248c93 4 217-23 216 74zM76-134c48-2 112 12 112-38 0-48-66-32-112-35v73" id="ch"/><g id="X"><use transform="matrix(0.06172839506172839,0,0,0.06172839506172839,0,0)" xlink:href="#ch"/><use transform="matrix(0.06172839506172839,0,0,0.06172839506172839,15.987654320987653,0)" xlink:href="#bR"/><use transform="matrix(0.06172839506172839,0,0,0.06172839506172839,29.50617283950617,0)" xlink:href="#bO"/></g><path d="M24-248c120-7 223 5 221 122C244-46 201 0 124 0H24v-248zM76-40c74 7 117-18 117-86 0-67-45-88-117-82v168" id="ci"/><path d="M190-63c-7 42-38 67-86 67-59 0-84-38-90-98-12-110 154-137 174-36l-49 2c-2-19-15-32-35-32-30 0-35 28-38 64-6 74 65 87 74 30" id="cj"/><path d="M128 0H69L1-190h53L99-40l48-150h52" id="ck"/><path d="M137-138c1-29-70-34-71-4 15 46 118 7 119 86 1 83-164 76-172 9l43-7c4 19 20 25 44 25 33 8 57-30 24-41C81-84 22-81 20-136c-2-80 154-74 161-7" id="cl"/><g id="Y"><use transform="matrix(0.06172839506172839,0,0,0.06172839506172839,0,0)" xlink:href="#ci"/><use transform="matrix(0.06172839506172839,0,0,0.06172839506172839,15.987654320987653,0)" xlink:href="#cd"/><use transform="matrix(0.06172839506172839,0,0,0.06172839506172839,22.160493827160494,0)" xlink:href="#bH"/><use transform="matrix(0.06172839506172839,0,0,0.06172839506172839,30.80246913580247,0)" xlink:href="#bI"/><use transform="matrix(0.06172839506172839,0,0,0.06172839506172839,43.148148148148145,0)" xlink:href="#cj"/><use transform="matrix(0.06172839506172839,0,0,0.06172839506172839,55.49382716049382,0)" xlink:href="#bP"/><use transform="matrix(0.06172839506172839,0,0,0.06172839506172839,62.8395061728395,0)" xlink:href="#cd"/><use transform="matrix(0.06172839506172839,0,0,0.06172839506172839,69.01234567901234,0)" xlink:href="#ck"/><use transform="matrix(0.06172839506172839,0,0,0.06172839506172839,81.35802469135803,0)" xlink:href="#bI"/><use transform="matrix(0.06172839506172839,0,0,0.06172839506172839,93.70370370370371,0)" xlink:href="#cl"/></g></defs></g></svg>